HIERARCHY
ROOT Hips
{
  OFFSET 0 0 0
  CHANNELS 6 Xposition Yposition Zposition Zrotation Xrotation Yrotation
  JOINT Spine
  {
    OFFSET 0.00000000 0.00000000 0.00000000
    CHANNELS 3 Zrotation Xrotation Yrotation
    JOINT Spine1
    {
      OFFSET 0.19000000 0.00000000 0.00000000
      CHANNELS 3 Zrotation Xrotation Yrotation
      JOINT Neck
      {
        OFFSET 0.22500000 0.00600000 0.00000000
        CHANNELS 3 Zrotation Xrotation Yrotation
        JOINT Head
        {
          OFFSET 0.14000000 0.00030878 0.00000000
          CHANNELS 3 Zrotation Xrotation Yrotation
          End Site
          {
            OFFSET 0.17000000 0.00000000 0.00000000
          }
        }
      }
      JOINT LeftShoulder
      {
        OFFSET 0.19800000 0.03700000 0.04300000
        CHANNELS 3 Zrotation Xrotation Yrotation
        JOINT LeftArm
        {
          OFFSET 0.08000000 0.00000000 0.00000000
          CHANNELS 3 Zrotation Xrotation Yrotation
          JOINT LeftForeArm
          {
            OFFSET 0.15200000 0.00000000 0.00000000
            CHANNELS 3 Zrotation Xrotation Yrotation
            JOINT LeftHand
            {
              OFFSET 0.17800000 0.00000000 0.00000000
              CHANNELS 3 Zrotation Xrotation Yrotation
              End Site
              {
                OFFSET 0.07200000 0.00000000 0.00000000
              }
            }
          }
        }
      }
      JOINT RightShoulder
      {
        OFFSET 0.19800000 0.03700000 -0.04300000
        CHANNELS 3 Zrotation Xrotation Yrotation
        JOINT RightArm
        {
          OFFSET 0.08000000 0.00000000 0.00151654
          CHANNELS 3 Zrotation Xrotation Yrotation
          JOINT RightForeArm
          {
            OFFSET 0.15200000 0.00000000 0.00000000
            CHANNELS 3 Zrotation Xrotation Yrotation
            JOINT RightHand
            {
              OFFSET 0.17800000 0.00000000 0.00000000
              CHANNELS 3 Zrotation Xrotation Yrotation
              End Site
              {
                OFFSET 0.07200000 0.00000000 0.00000000
              }
            }
          }
        }
      }
    }
  }
  JOINT LeftUpLeg
  {
    OFFSET 0.05984250 -0.07666000 0.04788790
    CHANNELS 3 Zrotation Xrotation Yrotation
    JOINT LeftLeg
    {
      OFFSET 0.16000000 0.00000000 0.00000000
      CHANNELS 3 Zrotation Xrotation Yrotation
      JOINT LeftFoot
      {
        OFFSET 0.18000000 0.00000000 0.00000000
        CHANNELS 3 Zrotation Xrotation Yrotation
        End Site
        {
          OFFSET 0.00000000 -0.10800000 0.00000000
        }
      }
    }
  }
  JOINT RightUpLeg
  {
    OFFSET 0.05984250 -0.07665980 -0.04788790
    CHANNELS 3 Zrotation Xrotation Yrotation
    JOINT RightLeg
    {
      OFFSET 0.16000000 0.00000000 0.00000000
      CHANNELS 3 Zrotation Xrotation Yrotation
      JOINT RightFoot
      {
        OFFSET 0.18000000 0.00000000 0.00000000
        CHANNELS 3 Zrotation Xrotation Yrotation
        End Site
        {
          OFFSET 0.00000000 -0.10800000 0.00000000
        }
      }
    }
  }
  JOINT Tail
  {
    OFFSET 0.06836960 -0.00722574 0.00000000
    CHANNELS 3 Zrotation Xrotation Yrotation
    JOINT Tail1
    {
      OFFSET 0.12000000 0.00000000 0.00000000
      CHANNELS 3 Zrotation Xrotation Yrotation
      End Site
      {
        OFFSET 0.12000000 0.00000000 0.00000000
      }
    }
  }
}
MOTION
Frames:	8
Frame Time:	0.0166667
-4.5654194 0.4622080 0.5809964 -4.64251 -2.07488 8.43758 -166.809 2.79816 11.2772 -8.16357 3.88713 -13.1497 -13.8407 -11.0397 9.86524 -76.4222 79.0905 95.2847 -103.459 -22.624 -152.043 132.004 -41.161 -131.706 -39.7313 16.4555 -4.73079 -16.4564 1.29119 -9.08368 72.5123 -37.0284 50.2112 34.3265 -16.6715 -53.3735 -58.2408 -15.3243 2.61726 -6.29117 0.528883 0.908564 -96.6185 -9.78677 -10.4625 68.8346 17.3134 6.81292 56.5761 -4.35967 -7.14755 -134.182 2.22556 3.35703 63.0325 -3.72772 -6.91145 51.7359 1.15366 -0.955697 -14.0195 17.4094 14.2667 13.9897 -19.5711 8.58153 
-4.5822627 0.4596010 0.5808276 -4.82402 -3.12887 7.70299 -168.026 1.90711 10.7162 -5.92026 3.07287 -13.6735 -14.6124 -10.6848 10.3211 -79.8325 78.9583 98.1709 -103.553 -22.9755 -151.132 135.001 -42.2856 -130.677 -37.1241 15.7951 -4.16774 -13.992 0.595983 -6.99571 72.6945 -37.196 51.0177 31.7375 -21.055 -52.349 -58.0737 -19.6954 0.987848 -12.8079 0.582524 2.88598 -96.1264 -9.77047 -9.03697 71.0912 17.0706 5.76578 58.2258 -4.27792 -7.00386 -133.411 2.28505 3.21905 67.3639 -2.8095 -6.39109 47.1146 0.668095 -1.1621 -15.9027 19.7919 15.0532 15.9775 -21.2899 10.9308 
-4.5995095 0.4568070 0.5814997 -4.76916 -3.45425 7.01703 -168.85 1.27237 9.84523 -4.66522 2.53315 -13.7189 -15.2267 -10.3249 10.5252 -83.7018 78.4089 101.792 -103.909 -23.6393 -150.219 136.65 -43.7269 -130.096 -35.9555 14.1431 -3.54193 -10.4338 -0.252018 -3.56212 72.9679 -36.8267 51.1476 32.0175 -24.6822 -53.3411 -59.4414 -19.4528 1.85414 -12.7292 0.00149284 4.82568 -98.0373 -9.37185 -8.18456 75.9998 14.6643 4.21119 58.8526 -3.87388 -6.58687 -132.975 2.16063 3.09101 70.9814 -2.28133 -5.9523 44.7873 0.344526 -1.36874 -19.2744 22.5198 15.472 17.8345 -24.2548 13.5645 
-4.6169551 0.4552390 0.5827626 -4.48928 -2.97212 6.14328 -168.652 0.952066 8.33751 -5.26329 2.40584 -13.0402 -15.343 -9.80688 10.3244 -87.2918 77.6563 105.596 -104.486 -24.5521 -149.4 134.725 -45.1693 -130.724 -38.0216 10.1594 -3.13114 -3.3011 -0.651324 1.00237 73.0201 -36.0471 49.8977 33.7196 -27.8135 -54.1445 -61.453 -18.5206 2.89798 -12.1975 -0.897573 7.6761 -101.461 -8.87342 -8.25992 80.8342 11.0327 2.94715 58.5066 -3.32407 -6.01163 -132.299 2.09899 2.614 74.0431 -3.26879 -5.61815 42.9791 0.32023 -1.29183 -23.3013 24.7194 15.9063 18.2057 -27.9546 15.3518 
-4.6351353 0.4546090 0.5848897 -3.84186 -2.06362 5.14150 -167.979 0.834833 6.47842 -7.1759 2.56497 -11.9163 -15.1125 -9.36805 10.0312 -88.7283 77.4804 107.501 -105.375 -25.9565 -148.267 128.509 -44.3607 -131.86 -43.9679 -3.59964 -2.25361 10.1461 1.00338 2.46448 72.9927 -35.2039 48.2478 36.7901 -30.5993 -54.6212 -63.8005 -20.523 3.06042 -14.1471 -1.10098 8.49778 -105.61 -8.05109 -8.5928 84.5332 9.9848 1.99603 56.0485 -2.98746 -5.60455 -131.328 2.26931 2.12767 75.6942 -4.87072 -5.54971 42.0879 0.532211 -1.01744 -27.1721 25.9478 16.093 16.9104 -31.3985 15.5451 
-4.6538295 0.4542900 0.5878692 -2.78319 -0.84043 3.87705 -167.372 0.752337 4.27094 -9.69998 2.84795 -10.6404 -14.6005 -8.99732 9.94356 -88.7315 78.0621 107.879 -106.314 -27.6532 -146.601 123.979 -43.0183 -132.059 -50.5686 -24.9905 -0.371992 26.315 2.74981 -7.69068 73.3869 -33.7766 46.6237 40.7724 -33.299 -54.2571 -67.0597 -21.0705 2.75864 -14.6694 -1.22009 8.9281 -110.652 -6.8196 -9.0596 88.5339 11.6338 1.22991 51.0291 -2.9182 -5.46608 -130.373 2.67226 1.95879 76.4495 -6.86509 -5.83639 41.7826 0.944549 -0.565117 -30.3069 25.9233 16.0493 14.6157 -33.6124 13.9558 
-4.6729310 0.4535410 0.5914233 -1.46076 0.52267 2.29756 -166.948 0.638296 1.73931 -12.5522 3.14332 -9.26944 -13.8303 -8.57553 9.90357 -87.9696 79.0953 107.535 -107.128 -29.3628 -144.697 123.664 -44.5435 -131.834 -56.2213 -45.7809 2.87131 36.583 0.676018 -24.3567 73.9732 -32.094 44.9249 44.6417 -36.5966 -52.141 -70.2841 -21.5373 1.88209 -15.0358 -1.29518 9.33182 -116.434 -5.1485 -9.60031 93.2509 13.9604 0.611316 44.8543 -2.94849 -5.47601 -129.67 3.01754 1.79108 76.9086 -8.92161 -6.16028 42.0993 1.40898 -0.0843561 -32.8055 24.9312 15.9584 12.006 -34.5972 11.4079 
-4.6920659 0.4527520 0.5949727 -0.19955 1.92578 0.47563 -166.742 0.387682 -1.12774 -15.0275 3.22684 -7.68266 -13.0456 -7.94968 9.81623 -88.2853 80.1576 107.868 -107.999 -31.1944 -142.885 123.81 -46.2229 -132.707 -57.0429 -64.3997 11.0802 39.0925 -2.65972 -40.9866 74.2954 -30.85 43.1765 48.0566 -39.8964 -49.8932 -72.3643 -21.9625 1.31985 -15.4156 -1.3914 9.73841 -122.398 -3.37505 -10.4215 97.505 14.779 0.213503 40.0784 -2.84724 -5.32894 -128.711 3.15013 1.26006 77.1866 -10.6248 -6.22301 42.5402 1.77373 0.28739 -34.0826 22.9547 15.7123 9.4707 -34.2069 8.7367 
